<svg width="188" height="32" viewBox="0 0 188 32" fill="none" xmlns="http://www.w3.org/2000/svg">
<path d="M71.0799 5.54544V23H67.4492V5.54544H71.0799Z" fill="white"/>
<path d="M77.7212 23.2471C76.886 23.2471 76.1417 23.1023 75.4883 22.8125C74.8349 22.517 74.3178 22.0824 73.9371 21.5085C73.5621 20.929 73.3746 20.2074 73.3746 19.3437C73.3746 18.6165 73.5082 18.0057 73.7752 17.5113C74.0423 17.017 74.4059 16.6193 74.8661 16.3182C75.3263 16.017 75.8491 15.7898 76.4343 15.6363C77.0252 15.4829 77.6445 15.375 78.2923 15.3125C79.0536 15.2329 79.6673 15.1591 80.1332 15.0909C80.5991 15.017 80.9371 14.9091 81.1474 14.767C81.3576 14.625 81.4627 14.4148 81.4627 14.1363V14.0852C81.4627 13.5454 81.2923 13.1278 80.9513 12.8324C80.6161 12.5369 80.1388 12.3892 79.5195 12.3892C78.8661 12.3892 78.3462 12.5341 77.9599 12.8238C77.5735 13.1079 77.3178 13.4659 77.1928 13.8977L73.8349 13.625C74.0053 12.8295 74.3406 12.142 74.8406 11.5625C75.3406 10.9773 75.9854 10.5284 76.7752 10.2159C77.5707 9.89771 78.4911 9.73862 79.5366 9.73862C80.2638 9.73862 80.9599 9.82385 81.6246 9.9943C82.2951 10.1648 82.8888 10.429 83.4059 10.7869C83.9286 11.1449 84.3406 11.6051 84.6417 12.1676C84.9428 12.7244 85.0934 13.392 85.0934 14.1704V23H81.6502V21.1846H81.5479C81.3377 21.5937 81.0565 21.9545 80.7042 22.267C80.3519 22.5738 79.9286 22.8153 79.4343 22.9915C78.94 23.1619 78.369 23.2471 77.7212 23.2471ZM78.761 20.7415C79.2951 20.7415 79.7667 20.6363 80.1758 20.4261C80.5849 20.2102 80.9059 19.9204 81.1388 19.5568C81.3718 19.1932 81.4883 18.7812 81.4883 18.321V16.9318C81.3746 17.0057 81.2184 17.0738 81.0195 17.1363C80.8263 17.1932 80.6076 17.2471 80.3633 17.2983C80.119 17.3437 79.8746 17.3863 79.6303 17.4261C79.386 17.4602 79.1644 17.4915 78.9656 17.5199C78.5394 17.5824 78.1673 17.6818 77.8491 17.8182C77.5309 17.9545 77.2837 18.1392 77.1076 18.3721C76.9315 18.5994 76.8434 18.8835 76.8434 19.2244C76.8434 19.7187 77.0224 20.0966 77.3803 20.3579C77.744 20.6136 78.2042 20.7415 78.761 20.7415Z" fill="white"/>
<path d="M89.6829 27.9091C89.2227 27.9091 88.7908 27.8721 88.3874 27.7983C87.9897 27.7301 87.6602 27.642 87.3988 27.5341L88.217 24.8238C88.6431 24.9545 89.0266 25.0256 89.3675 25.0369C89.7141 25.0483 90.0124 24.9687 90.2624 24.7983C90.5181 24.6278 90.7255 24.3381 90.8846 23.929L91.0977 23.375L86.4016 9.90907H90.2198L92.93 19.5227H93.0664L95.8022 9.90907H99.646L94.5579 24.4148C94.3136 25.1193 93.9812 25.7329 93.5607 26.2557C93.146 26.7841 92.6204 27.1903 91.984 27.4744C91.3477 27.7642 90.5806 27.9091 89.6829 27.9091Z" fill="white"/>
<path d="M106.997 23.2557C105.673 23.2557 104.528 22.9744 103.562 22.4119C102.602 21.8437 101.86 21.054 101.338 20.0426C100.815 19.0256 100.554 17.8466 100.554 16.5057C100.554 15.1534 100.815 13.9716 101.338 12.9602C101.86 11.9432 102.602 11.1534 103.562 10.5909C104.528 10.0227 105.673 9.73862 106.997 9.73862C108.321 9.73862 109.463 10.0227 110.423 10.5909C111.389 11.1534 112.133 11.9432 112.656 12.9602C113.179 13.9716 113.44 15.1534 113.44 16.5057C113.44 17.8466 113.179 19.0256 112.656 20.0426C112.133 21.054 111.389 21.8437 110.423 22.4119C109.463 22.9744 108.321 23.2557 106.997 23.2557ZM107.014 20.4432C107.616 20.4432 108.119 20.2727 108.522 19.9318C108.926 19.5852 109.23 19.1136 109.434 18.517C109.645 17.9204 109.75 17.2415 109.75 16.4801C109.75 15.7187 109.645 15.0398 109.434 14.4432C109.23 13.8466 108.926 13.375 108.522 13.0284C108.119 12.6818 107.616 12.5085 107.014 12.5085C106.406 12.5085 105.895 12.6818 105.48 13.0284C105.071 13.375 104.761 13.8466 104.551 14.4432C104.346 15.0398 104.244 15.7187 104.244 16.4801C104.244 17.2415 104.346 17.9204 104.551 18.517C104.761 19.1136 105.071 19.5852 105.48 19.9318C105.895 20.2727 106.406 20.4432 107.014 20.4432Z" fill="white"/>
<path d="M124.196 17.4261V9.90907H127.826V23H124.341V20.6221H124.204C123.909 21.3892 123.417 22.0057 122.73 22.4716C122.048 22.9375 121.216 23.1704 120.233 23.1704C119.358 23.1704 118.588 22.9716 117.923 22.5738C117.258 22.1761 116.738 21.6108 116.363 20.8778C115.994 20.1449 115.806 19.267 115.801 18.2443V9.90907H119.431V17.5966C119.437 18.3693 119.645 18.9801 120.054 19.429C120.463 19.8778 121.011 20.1023 121.699 20.1023C122.136 20.1023 122.545 20.0028 122.926 19.804C123.306 19.5994 123.613 19.2983 123.846 18.9006C124.085 18.5028 124.201 18.0113 124.196 17.4261Z" fill="white"/>
<path d="M137.694 9.90907V12.6363H129.81V9.90907H137.694ZM131.6 6.77271H135.23V18.9773C135.23 19.3125 135.282 19.5738 135.384 19.7613C135.486 19.9432 135.628 20.071 135.81 20.1449C135.998 20.2187 136.213 20.2557 136.458 20.2557C136.628 20.2557 136.799 20.2415 136.969 20.2131C137.14 20.179 137.27 20.1534 137.361 20.1363L137.932 22.8381C137.75 22.8949 137.495 22.9602 137.165 23.0341C136.836 23.1136 136.435 23.1619 135.963 23.179C135.088 23.2131 134.321 23.0966 133.662 22.8295C133.009 22.5625 132.5 22.1477 132.137 21.5852C131.773 21.0227 131.594 20.3125 131.6 19.4545V6.77271Z" fill="white"/>
<path d="M145.833 23.2557C144.509 23.2557 143.364 22.9744 142.398 22.4119C141.438 21.8437 140.696 21.054 140.174 20.0426C139.651 19.0256 139.39 17.8466 139.39 16.5057C139.39 15.1534 139.651 13.9716 140.174 12.9602C140.696 11.9432 141.438 11.1534 142.398 10.5909C143.364 10.0227 144.509 9.73862 145.833 9.73862C147.157 9.73862 148.299 10.0227 149.259 10.5909C150.225 11.1534 150.969 11.9432 151.492 12.9602C152.015 13.9716 152.276 15.1534 152.276 16.5057C152.276 17.8466 152.015 19.0256 151.492 20.0426C150.969 21.054 150.225 21.8437 149.259 22.4119C148.299 22.9744 147.157 23.2557 145.833 23.2557ZM145.85 20.4432C146.452 20.4432 146.955 20.2727 147.358 19.9318C147.762 19.5852 148.066 19.1136 148.27 18.517C148.48 17.9204 148.586 17.2415 148.586 16.4801C148.586 15.7187 148.48 15.0398 148.27 14.4432C148.066 13.8466 147.762 13.375 147.358 13.0284C146.955 12.6818 146.452 12.5085 145.85 12.5085C145.242 12.5085 144.73 12.6818 144.316 13.0284C143.907 13.375 143.597 13.8466 143.387 14.4432C143.182 15.0398 143.08 15.7187 143.08 16.4801C143.08 17.2415 143.182 17.9204 143.387 18.517C143.597 19.1136 143.907 19.5852 144.316 19.9318C144.73 20.2727 145.242 20.4432 145.85 20.4432Z" fill="white"/>
<path d="M154.637 27.9091V9.90907H158.216V12.1079H158.378C158.537 11.7557 158.767 11.3977 159.069 11.0341C159.375 10.6648 159.773 10.3579 160.262 10.1136C160.756 9.86362 161.37 9.73862 162.103 9.73862C163.057 9.73862 163.938 9.98862 164.745 10.4886C165.551 10.9829 166.196 11.7301 166.679 12.7301C167.162 13.7244 167.404 14.9716 167.404 16.4716C167.404 17.9318 167.168 19.1648 166.696 20.1704C166.23 21.1704 165.594 21.929 164.787 22.446C163.986 22.9574 163.088 23.2131 162.094 23.2131C161.39 23.2131 160.79 23.0966 160.296 22.8636C159.807 22.6307 159.407 22.3381 159.094 21.9858C158.782 21.6278 158.543 21.267 158.378 20.9034H158.267V27.9091H154.637ZM158.191 16.4545C158.191 17.2329 158.299 17.9119 158.515 18.4915C158.73 19.071 159.043 19.5227 159.452 19.8466C159.861 20.1648 160.358 20.3238 160.944 20.3238C161.534 20.3238 162.034 20.1619 162.444 19.8381C162.853 19.5085 163.162 19.054 163.373 18.4744C163.588 17.8892 163.696 17.2159 163.696 16.4545C163.696 15.6988 163.591 15.0341 163.381 14.4602C163.171 13.8863 162.861 13.4375 162.452 13.1136C162.043 12.7898 161.54 12.6278 160.944 12.6278C160.353 12.6278 159.853 12.7841 159.444 13.0966C159.04 13.4091 158.73 13.8523 158.515 14.4261C158.299 15 158.191 15.6761 158.191 16.4545Z" fill="white"/>
<path d="M169.824 23V9.90907H173.455V23H169.824ZM171.648 8.22157C171.108 8.22157 170.645 8.0426 170.259 7.68464C169.878 7.32101 169.688 6.88635 169.688 6.38067C169.688 5.88067 169.878 5.45169 170.259 5.09373C170.645 4.7301 171.108 4.54828 171.648 4.54828C172.188 4.54828 172.648 4.7301 173.029 5.09373C173.415 5.45169 173.608 5.88067 173.608 6.38067C173.608 6.88635 173.415 7.32101 173.029 7.68464C172.648 8.0426 172.188 8.22157 171.648 8.22157Z" fill="white"/>
<path d="M180.096 23.2471C179.261 23.2471 178.517 23.1023 177.863 22.8125C177.21 22.517 176.693 22.0824 176.312 21.5085C175.937 20.929 175.75 20.2074 175.75 19.3437C175.75 18.6165 175.883 18.0057 176.15 17.5113C176.417 17.017 176.781 16.6193 177.241 16.3182C177.701 16.017 178.224 15.7898 178.809 15.6363C179.4 15.4829 180.02 15.375 180.667 15.3125C181.429 15.2329 182.042 15.1591 182.508 15.0909C182.974 15.017 183.312 14.9091 183.522 14.767C183.733 14.625 183.838 14.4148 183.838 14.1363V14.0852C183.838 13.5454 183.667 13.1278 183.326 12.8324C182.991 12.5369 182.514 12.3892 181.895 12.3892C181.241 12.3892 180.721 12.5341 180.335 12.8238C179.949 13.1079 179.693 13.4659 179.568 13.8977L176.21 13.625C176.38 12.8295 176.716 12.142 177.216 11.5625C177.716 10.9773 178.36 10.5284 179.15 10.2159C179.946 9.89771 180.866 9.73862 181.912 9.73862C182.639 9.73862 183.335 9.82385 184 9.9943C184.67 10.1648 185.264 10.429 185.781 10.7869C186.304 11.1449 186.716 11.6051 187.017 12.1676C187.318 12.7244 187.468 13.392 187.468 14.1704V23H184.025V21.1846H183.923C183.713 21.5937 183.431 21.9545 183.079 22.267C182.727 22.5738 182.304 22.8153 181.809 22.9915C181.315 23.1619 180.744 23.2471 180.096 23.2471ZM181.136 20.7415C181.67 20.7415 182.142 20.6363 182.551 20.4261C182.96 20.2102 183.281 19.9204 183.514 19.5568C183.747 19.1932 183.863 18.7812 183.863 18.321V16.9318C183.75 17.0057 183.593 17.0738 183.395 17.1363C183.201 17.1932 182.983 17.2471 182.738 17.2983C182.494 17.3437 182.25 17.3863 182.005 17.4261C181.761 17.4602 181.539 17.4915 181.341 17.5199C180.914 17.5824 180.542 17.6818 180.224 17.8182C179.906 17.9545 179.659 18.1392 179.483 18.3721C179.306 18.5994 179.218 18.8835 179.218 19.2244C179.218 19.7187 179.397 20.0966 179.755 20.3579C180.119 20.6136 180.579 20.7415 181.136 20.7415Z" fill="white"/>
<g clip-path="url(#clip0_73_84)">
<path fill-rule="evenodd" clip-rule="evenodd" d="M27.6807 15.97L40.3435 25.3122L52.9937 15.9793L40.3309 6.63712L27.6807 15.97ZM20.9335 14.3107C19.6914 15.2271 19.6914 16.7129 20.9336 17.6293L38.0945 30.29C39.3366 31.2064 41.3505 31.2064 42.5926 30.29L59.7409 17.6386C60.983 16.7222 60.983 15.2364 59.7409 14.32L42.58 1.65928C41.3378 0.742885 39.324 0.742885 38.0818 1.65928L20.9335 14.3107Z" fill="white"/>
<path fill-rule="evenodd" clip-rule="evenodd" d="M20.3416 25.3402L7.67876 15.998L20.3289 6.66512L25.3606 9.98375L29.8587 6.66512L22.578 1.6873C21.3359 0.7709 19.322 0.7709 18.0799 1.6873L0.931593 14.3387C-0.310532 15.2551 -0.31053 16.7409 0.931593 17.6573L18.0925 30.3181C19.3347 31.2344 21.3485 31.2344 22.5907 30.3181L29.726 25.3402L25.2279 22.0216L20.3416 25.3402ZM31.0531 17.3125L35.5512 20.6311L39.7389 17.6666C40.981 16.7502 40.981 15.2644 39.7389 14.3481L35.7105 11.0294L31.2123 14.3481L32.9917 16.0073L31.0531 17.3125Z" fill="white"/>
</g>
<defs>
<clipPath id="clip0_73_84">
<rect width="62" height="32" fill="white"/>
</clipPath>
</defs>
</svg>
